<svg xmlns="http://www.w3.org/2000/svg" width="805" height="600"><rect width="805" height="600" x="0" y="0" fill="#FFFFFF" id="background"/><g id="viz"><clipPath id="serieClipPath"><rect x="-50" y="-42" width="805" height="600"/></clipPath><g transform="translate(0,0)"><g transform="translate(50,42)" clip-path="url(#serieClipPath)"><g id="axis"><g transform="translate(0,538)" fill="none" font-size="10" font-family="sans-serif" text-anchor="middle"><path class="domain" stroke="currentColor" d="M0.5,6V0.5H733.5V6"/><g class="tick" opacity="1" transform="translate(0.5,0)"><line stroke="currentColor" y2="6"/><text fill="currentColor" y="9" dy="0.71em">Sep 28</text></g><g class="tick" opacity="1" transform="translate(81.94444444444444,0)"><line stroke="currentColor" y2="6"/><text fill="currentColor" y="9" dy="0.71em">Oct 05</text></g><g class="tick" opacity="1" transform="translate(163.38888888888889,0)"><line stroke="currentColor" y2="6"/><text fill="currentColor" y="9" dy="0.71em">Oct 12</text></g><g class="tick" opacity="1" transform="translate(244.83333333333331,0)"><line stroke="currentColor" y2="6"/><text fill="currentColor" y="9" dy="0.71em">Oct 19</text></g><g class="tick" opacity="1" transform="translate(326.27777777777777,0)"><line stroke="currentColor" y2="6"/><text fill="currentColor" y="9" dy="0.71em">Oct 26</text></g><g class="tick" opacity="1" transform="translate(407.72222222222223,0)"><line stroke="currentColor" y2="6"/><text fill="currentColor" y="9" dy="0.71em">Nov 02</text></g><g class="tick" opacity="1" transform="translate(489.16666666666663,0)"><line stroke="currentColor" y2="6"/><text fill="currentColor" y="9" dy="0.71em">Nov 09</text></g><g class="tick" opacity="1" transform="translate(570.6111111111111,0)"><line stroke="currentColor" y2="6"/><text fill="currentColor" y="9" dy="0.71em">Nov 16</text></g><g class="tick" opacity="1" transform="translate(652.0555555555555,0)"><line stroke="currentColor" y2="6"/><text fill="currentColor" y="9" dy="0.71em">Nov 23</text></g><g class="tick" opacity="1" transform="translate(733.5,0)"><line stroke="currentColor" y2="6"/><text fill="currentColor" y="9" dy="0.71em">Nov 30</text></g><text x="733" dy="-5" text-anchor="end" style="font-family: Arial, sans-serif; font-size: 12px; fill: rgb(123, 123, 123); font-weight: bold;">Fecha</text></g><g transform="translate(0,0)" fill="none" font-size="10" font-family="sans-serif" text-anchor="end"><path class="domain" stroke="currentColor" d="M0.5,538.5V0.5"/><g class="tick" opacity="1" transform="translate(0,538.5)"><line stroke="currentColor" x2="-6"/><text fill="currentColor" x="-9" dy="0.32em">0</text></g><g class="tick" opacity="1" transform="translate(0,500.0714285714286)"><line stroke="currentColor" x2="-6"/><text fill="currentColor" x="-9" dy="0.32em">1</text></g><g class="tick" opacity="1" transform="translate(0,461.64285714285717)"><line stroke="currentColor" x2="-6"/><text fill="currentColor" x="-9" dy="0.32em">2</text></g><g class="tick" opacity="1" transform="translate(0,423.2142857142857)"><line stroke="currentColor" x2="-6"/><text fill="currentColor" x="-9" dy="0.32em">3</text></g><g class="tick" opacity="1" transform="translate(0,384.7857142857143)"><line stroke="currentColor" x2="-6"/><text fill="currentColor" x="-9" dy="0.32em">4</text></g><g class="tick" opacity="1" transform="translate(0,346.35714285714283)"><line stroke="currentColor" x2="-6"/><text fill="currentColor" x="-9" dy="0.32em">5</text></g><g class="tick" opacity="1" transform="translate(0,307.9285714285714)"><line stroke="currentColor" x2="-6"/><text fill="currentColor" x="-9" dy="0.32em">6</text></g><g class="tick" opacity="1" transform="translate(0,269.5)"><line stroke="currentColor" x2="-6"/><text fill="currentColor" x="-9" dy="0.32em">7</text></g><g class="tick" opacity="1" transform="translate(0,231.07142857142858)"><line stroke="currentColor" x2="-6"/><text fill="currentColor" x="-9" dy="0.32em">8</text></g><g class="tick" opacity="1" transform="translate(0,192.6428571428571)"><line stroke="currentColor" x2="-6"/><text fill="currentColor" x="-9" dy="0.32em">9</text></g><g class="tick" opacity="1" transform="translate(0,154.2142857142857)"><line stroke="currentColor" x2="-6"/><text fill="currentColor" x="-9" dy="0.32em">10</text></g><g class="tick" opacity="1" transform="translate(0,115.78571428571429)"><line stroke="currentColor" x2="-6"/><text fill="currentColor" x="-9" dy="0.32em">11</text></g><g class="tick" opacity="1" transform="translate(0,77.35714285714289)"><line stroke="currentColor" x2="-6"/><text fill="currentColor" x="-9" dy="0.32em">12</text></g><g class="tick" opacity="1" transform="translate(0,38.92857142857141)"><line stroke="currentColor" x2="-6"/><text fill="currentColor" x="-9" dy="0.32em">13</text></g><g class="tick" opacity="1" transform="translate(0,0.5)"><line stroke="currentColor" x2="-6"/><text fill="currentColor" x="-9" dy="0.32em">14</text></g><text x="4" text-anchor="start" dominant-baseline="hanging" style="font-family: Arial, sans-serif; font-size: 12px; fill: rgb(123, 123, 123); font-weight: bold;">Distancia [km]</text></g></g><g id="viz"><g><path d="M34.904761904761905,369.2985714285714C40.72222222222222,369.2985714285714,40.72222222222222,386.20714285714286,46.53968253968254,386.20714285714286C52.357142857142854,386.20714285714286,52.357142857142854,336.6342857142857,58.17460317460317,336.6342857142857C63.992063492063494,336.6342857142857,63.992063492063494,70.3242857142857,69.80952380952381,70.3242857142857C75.62698412698413,70.3242857142857,75.62698412698413,264.7728571428571,81.44444444444444,264.7728571428571C87.26190476190476,264.7728571428571,87.26190476190476,257.8557142857143,93.07936507936508,257.8557142857143C98.89682539682539,257.8557142857143,98.89682539682539,308.5814285714286,104.71428571428571,308.5814285714286C110.53174603174602,308.5814285714286,110.53174603174602,147.95000000000002,116.34920634920634,147.95000000000002C122.16666666666666,147.95000000000002,122.16666666666666,332.40714285714284,127.98412698412697,332.40714285714284C133.8015873015873,332.40714285714284,133.8015873015873,312.80857142857144,139.61904761904762,312.80857142857144C145.43650793650795,312.80857142857144,145.43650793650795,243.25285714285715,151.25396825396825,243.25285714285715C157.07142857142856,243.25285714285715,157.07142857142856,331.6385714285714,162.88888888888889,331.6385714285714C168.70634920634922,331.6385714285714,168.70634920634922,415.7971428571429,174.52380952380952,415.7971428571429C180.34126984126982,415.7971428571429,180.34126984126982,393.89285714285717,186.15873015873015,393.89285714285717C191.97619047619048,393.89285714285717,191.97619047619048,411.18571428571425,197.79365079365078,411.18571428571425C203.6111111111111,411.18571428571425,203.6111111111111,398.5042857142857,209.42857142857142,398.5042857142857C215.24603174603175,398.5042857142857,215.24603174603175,303.96999999999997,221.06349206349205,303.96999999999997C226.88095238095235,303.96999999999997,226.88095238095235,184.45714285714286,232.69841269841268,184.45714285714286C238.515873015873,184.45714285714286,238.515873015873,254.78142857142856,244.33333333333331,254.78142857142856C250.15079365079362,254.78142857142856,250.15079365079362,383.51714285714286,255.96825396825395,383.51714285714286C261.7857142857143,383.51714285714286,261.7857142857143,313.1928571428572,267.6031746031746,313.1928571428572C273.42063492063494,313.1928571428572,273.42063492063494,430.0157142857143,279.23809523809524,430.0157142857143C285.05555555555554,430.0157142857143,285.05555555555554,466.90714285714284,290.87301587301585,466.90714285714284C296.69047619047615,466.90714285714284,296.69047619047615,344.32,302.5079365079365,344.32C308.3253968253968,344.32,308.3253968253968,270.5371428571429,314.1428571428571,270.5371428571429C319.96031746031747,270.5371428571429,319.96031746031747,214.81571428571425,325.77777777777777,214.81571428571425C331.5952380952381,214.81571428571425,331.5952380952381,344.32,337.4126984126984,344.32C343.2301587301587,344.32,343.2301587301587,335.48142857142864,349.04761904761904,335.48142857142864C354.86507936507934,335.48142857142864,354.86507936507934,382.36428571428576,360.68253968253964,382.36428571428576C366.5,382.36428571428576,366.5,300.1271428571428,372.3174603174603,300.1271428571428C378.1349206349206,300.1271428571428,378.1349206349206,302.0485714285714,383.95238095238096,302.0485714285714C389.76984126984127,302.0485714285714,389.76984126984127,407.34285714285716,395.58730158730157,407.34285714285716C401.4047619047619,407.34285714285716,401.4047619047619,318.95714285714286,407.22222222222223,318.95714285714286C413.03968253968253,318.95714285714286,413.03968253968253,433.09,418.85714285714283,433.09C424.67460317460313,433.09,424.67460317460313,393.1242857142857,430.4920634920635,393.1242857142857C436.3095238095238,393.1242857142857,436.3095238095238,332.0228571428571,442.1269841269841,332.0228571428571C447.94444444444446,332.0228571428571,447.94444444444446,403.8842857142857,453.76190476190476,403.8842857142857C459.57936507936506,403.8842857142857,459.57936507936506,407.72714285714284,465.39682539682536,407.72714285714284C471.21428571428567,407.72714285714284,471.21428571428567,414.26,477.031746031746,414.26C482.8492063492063,414.26,482.8492063492063,339.7085714285714,488.66666666666663,339.7085714285714C494.484126984127,339.7085714285714,494.484126984127,352.0057142857143,500.3015873015873,352.0057142857143C506.1190476190476,352.0057142857143,506.1190476190476,379.29,511.9365079365079,379.29C517.7539682539682,379.29,517.7539682539682,259.77714285714285,523.5714285714286,259.77714285714285C529.3888888888889,259.77714285714285,529.3888888888889,454.9942857142857,535.2063492063492,454.9942857142857C541.0238095238095,454.9942857142857,541.0238095238095,144.1071428571429,546.8412698412699,144.1071428571429C552.6587301587301,144.1071428571429,552.6587301587301,243.63714285714286,558.4761904761905,243.63714285714286C564.2936507936508,243.63714285714286,564.2936507936508,234.02999999999997,570.1111111111111,234.02999999999997C575.9285714285713,234.02999999999997,575.9285714285713,248.63285714285712,581.7460317460317,248.63285714285712C587.563492063492,248.63285714285712,587.563492063492,400.0414285714286,593.3809523809524,400.0414285714286C599.1984126984128,400.0414285714286,599.1984126984128,302.81714285714287,605.015873015873,302.81714285714287C610.8333333333333,302.81714285714287,610.8333333333333,310.5028571428572,616.6507936507936,310.5028571428572C622.468253968254,310.5028571428572,622.468253968254,217.89000000000001,628.2857142857142,217.89000000000001C634.1031746031746,217.89000000000001,634.1031746031746,337.4028571428572,639.9206349206349,337.4028571428572C645.7380952380952,337.4028571428572,645.7380952380952,13.065714285714263,651.5555555555555,13.065714285714263C657.3730158730159,13.065714285714263,657.3730158730159,148.71857142857138,663.1904761904761,148.71857142857138C669.0079365079364,148.71857142857138,669.0079365079364,318.18857142857144,674.8253968253968,318.18857142857144C680.6428571428571,318.18857142857144,680.6428571428571,327.02714285714285,686.4603174603175,327.02714285714285C692.2777777777778,327.02714285714285,692.2777777777778,310.88714285714286,698.0952380952381,310.88714285714286C703.9126984126983,310.88714285714286,703.9126984126983,245.94285714285718,709.7301587301587,245.94285714285718C715.547619047619,245.94285714285718,715.547619047619,365.4557142857143,721.3650793650793,365.4557142857143C727.1825396825396,365.4557142857143,727.1825396825396,363.5342857142857,733,363.5342857142857" stroke="#b04261" fill="none"/><g><circle class="dot" cx="34.904761904761905" cy="369.2985714285714" r="4" fill="#b04261"/><circle class="dot" cx="46.53968253968254" cy="386.20714285714286" r="4" fill="#b04261"/><circle class="dot" cx="58.17460317460317" cy="336.6342857142857" r="4" fill="#b04261"/><circle class="dot" cx="69.80952380952381" cy="70.3242857142857" r="4" fill="#b04261"/><circle class="dot" cx="81.44444444444444" cy="264.7728571428571" r="4" fill="#b04261"/><circle class="dot" cx="93.07936507936508" cy="257.8557142857143" r="4" fill="#b04261"/><circle class="dot" cx="104.71428571428571" cy="308.5814285714286" r="4" fill="#b04261"/><circle class="dot" cx="116.34920634920634" cy="147.95000000000002" r="4" fill="#b04261"/><circle class="dot" cx="127.98412698412697" cy="332.40714285714284" r="4" fill="#b04261"/><circle class="dot" cx="139.61904761904762" cy="312.80857142857144" r="4" fill="#b04261"/><circle class="dot" cx="151.25396825396825" cy="243.25285714285715" r="4" fill="#b04261"/><circle class="dot" cx="162.88888888888889" cy="331.6385714285714" r="4" fill="#b04261"/><circle class="dot" cx="174.52380952380952" cy="415.7971428571429" r="4" fill="#b04261"/><circle class="dot" cx="186.15873015873015" cy="393.89285714285717" r="4" fill="#b04261"/><circle class="dot" cx="197.79365079365078" cy="411.18571428571425" r="4" fill="#b04261"/><circle class="dot" cx="209.42857142857142" cy="398.5042857142857" r="4" fill="#b04261"/><circle class="dot" cx="221.06349206349205" cy="303.96999999999997" r="4" fill="#b04261"/><circle class="dot" cx="232.69841269841268" cy="184.45714285714286" r="4" fill="#b04261"/><circle class="dot" cx="244.33333333333331" cy="254.78142857142856" r="4" fill="#b04261"/><circle class="dot" cx="255.96825396825395" cy="383.51714285714286" r="4" fill="#b04261"/><circle class="dot" cx="267.6031746031746" cy="313.1928571428572" r="4" fill="#b04261"/><circle class="dot" cx="279.23809523809524" cy="430.0157142857143" r="4" fill="#b04261"/><circle class="dot" cx="290.87301587301585" cy="466.90714285714284" r="4" fill="#b04261"/><circle class="dot" cx="302.5079365079365" cy="344.32" r="4" fill="#b04261"/><circle class="dot" cx="314.1428571428571" cy="270.5371428571429" r="4" fill="#b04261"/><circle class="dot" cx="325.77777777777777" cy="214.81571428571425" r="4" fill="#b04261"/><circle class="dot" cx="337.4126984126984" cy="344.32" r="4" fill="#b04261"/><circle class="dot" cx="349.04761904761904" cy="335.48142857142864" r="4" fill="#b04261"/><circle class="dot" cx="360.68253968253964" cy="382.36428571428576" r="4" fill="#b04261"/><circle class="dot" cx="372.3174603174603" cy="300.1271428571428" r="4" fill="#b04261"/><circle class="dot" cx="383.95238095238096" cy="302.0485714285714" r="4" fill="#b04261"/><circle class="dot" cx="395.58730158730157" cy="407.34285714285716" r="4" fill="#b04261"/><circle class="dot" cx="407.22222222222223" cy="318.95714285714286" r="4" fill="#b04261"/><circle class="dot" cx="418.85714285714283" cy="433.09" r="4" fill="#b04261"/><circle class="dot" cx="430.4920634920635" cy="393.1242857142857" r="4" fill="#b04261"/><circle class="dot" cx="442.1269841269841" cy="332.0228571428571" r="4" fill="#b04261"/><circle class="dot" cx="453.76190476190476" cy="403.8842857142857" r="4" fill="#b04261"/><circle class="dot" cx="465.39682539682536" cy="407.72714285714284" r="4" fill="#b04261"/><circle class="dot" cx="477.031746031746" cy="414.26" r="4" fill="#b04261"/><circle class="dot" cx="488.66666666666663" cy="339.7085714285714" r="4" fill="#b04261"/><circle class="dot" cx="500.3015873015873" cy="352.0057142857143" r="4" fill="#b04261"/><circle class="dot" cx="511.9365079365079" cy="379.29" r="4" fill="#b04261"/><circle class="dot" cx="523.5714285714286" cy="259.77714285714285" r="4" fill="#b04261"/><circle class="dot" cx="535.2063492063492" cy="454.9942857142857" r="4" fill="#b04261"/><circle class="dot" cx="546.8412698412699" cy="144.1071428571429" r="4" fill="#b04261"/><circle class="dot" cx="558.4761904761905" cy="243.63714285714286" r="4" fill="#b04261"/><circle class="dot" cx="570.1111111111111" cy="234.02999999999997" r="4" fill="#b04261"/><circle class="dot" cx="581.7460317460317" cy="248.63285714285712" r="4" fill="#b04261"/><circle class="dot" cx="593.3809523809524" cy="400.0414285714286" r="4" fill="#b04261"/><circle class="dot" cx="605.015873015873" cy="302.81714285714287" r="4" fill="#b04261"/><circle class="dot" cx="616.6507936507936" cy="310.5028571428572" r="4" fill="#b04261"/><circle class="dot" cx="628.2857142857142" cy="217.89000000000001" r="4" fill="#b04261"/><circle class="dot" cx="639.9206349206349" cy="337.4028571428572" r="4" fill="#b04261"/><circle class="dot" cx="651.5555555555555" cy="13.065714285714263" r="4" fill="#b04261"/><circle class="dot" cx="663.1904761904761" cy="148.71857142857138" r="4" fill="#b04261"/><circle class="dot" cx="674.8253968253968" cy="318.18857142857144" r="4" fill="#b04261"/><circle class="dot" cx="686.4603174603175" cy="327.02714285714285" r="4" fill="#b04261"/><circle class="dot" cx="698.0952380952381" cy="310.88714285714286" r="4" fill="#b04261"/><circle class="dot" cx="709.7301587301587" cy="245.94285714285718" r="4" fill="#b04261"/><circle class="dot" cx="721.3650793650793" cy="365.4557142857143" r="4" fill="#b04261"/><circle class="dot" cx="733" cy="363.5342857142857" r="4" fill="#b04261"/></g><text font-family="sans-serif" font-size="10" class="labels" x="651.5555555555555" y="13.065714285714263" dx="0" dy="-4" text-anchor="middle"/></g></g></g><text y="4" x="4" style="font-family: Arial, sans-serif; font-size: 12px; fill: black; font-weight: bold; dominant-baseline: hanging;"/></g><g id="grid"><rect x="0" y="0" width="805" height="600" fill="none" stroke="#ccc"/></g></g></svg>